<svg xmlns="http://www.w3.org/2000/svg" width="64" height="64"><path fill="#888" d="M26.044 31.304l7.604-5.07C33.124 26.084 32.572 26 32 26c-3.078 0-5.61 2.32-5.956 5.304zm32.276-14.55c.41-.267.68-.73.68-1.254 0-.828-.672-1.5-1.5-1.5-.303 0-.585.09-.82.245l-.018.01L4.68 48.245c-.41.27-.68.73-.68 1.256 0 .83.672 1.5 1.5 1.5.303 0 .585-.09.82-.24l.018-.01L58.32 16.76zM9.455 42.364L10 42l10.41-6.94c-.26-.978-.41-2-.41-3.06 0-6.628 5.373-12 12-12 2.742 0 5.262.93 7.283 2.478L46 18l.552-.345c-2.647-1.317-5.415-2.367-8.308-2.996-3.88-.85-7.786-.88-11.687-.17-3.55.65-6.97 2-10.17 3.67-5.01 2.62-9.586 6.23-13.574 10.28-.738.75-1.472 1.51-2.143 2.33-.893 1.08-.893 2.362 0 3.45 2.042 2.48 4.47 4.68 6.94 6.69.604.49 1.22.97 1.845 1.443zm54.542-9.984c0-.03-.004-.055-.006-.082v-.04c0-.02 0-.04-.01-.06 0-.022 0-.045-.01-.067-.07-.502-.31-.98-.67-1.342-2.04-2.476-4.47-4.68-6.94-6.692-.67-.55-1.36-1.09-2.07-1.617l-10.57 6.95c.185.83.287 1.69.287 2.575 0 6.628-5.372 12-12 12-2.614 0-5.025-.845-6.996-2.265L17 47l-.09.09c2.8 1.44 5.74 2.58 8.818 3.25 3.88.844 7.788.88 11.688.166 3.548-.65 6.968-2 10.17-3.673 5.012-2.62 9.587-6.23 13.575-10.28.74-.75 1.48-1.514 2.15-2.328.36-.367.59-.84.67-1.348v-.008l.01-.07.01-.06c0-.02.007-.03.008-.04l.007-.08.003-.13c-.006-.04-.01-.08-.01-.12zm-26.136.895l-7.01 4.613c.38.072.76.112 1.15.112 2.88 0 5.28-2.023 5.86-4.725z"/></svg>