<svg xmlns="http://www.w3.org/2000/svg" width="64" height="64"><path fill="#F60" d="M32 26c-3.314 0-6 2.686-6 6s2.686 6 6 6 6-2.686 6-6-2.686-6-6-6zm31.997 6.38c0-.03-.004-.055-.006-.082v-.04c0-.02 0-.04-.01-.06 0-.022 0-.045-.01-.067-.07-.502-.31-.98-.67-1.342-2.04-2.476-4.47-4.68-6.94-6.692-5.32-4.336-11.4-7.963-18.11-9.424-3.88-.844-7.783-.88-11.69-.165-3.55.65-6.97 2-10.17 3.675-5.01 2.62-9.583 6.23-13.57 10.28-.735.75-1.47 1.513-2.14 2.33-.893 1.08-.893 2.364 0 3.45 2.04 2.475 4.47 4.68 6.94 6.69 5.32 4.335 11.403 7.96 18.118 9.422 3.88.843 7.79.88 11.69.165 3.547-.65 6.967-2 10.17-3.676 5.01-2.62 9.586-6.23 13.574-10.28.737-.75 1.47-1.515 2.143-2.33.357-.367.59-.84.67-1.35v-.01l.01-.07.007-.056.002-.04.007-.08.003-.123-.006-.12zM32 44c-6.627 0-12-5.372-12-12s5.372-12 12-12 12 5.373 12 12c0 6.628-5.373 12-12 12z"/></svg>